<svg id="Layer_1" enable-background="new 0 0 512 512" height="512" viewBox="0 0 512 512" width="512" xmlns="http://www.w3.org/2000/svg"><g><g><path clip-rule="evenodd" d="m67.641 92.119c57.326 14.859 113.828 46.691 170.376 46.109 52.282-.538 104.605-32.371 157.606-46.109-6.77-17.855-24.597-30.996-46.022-32.539-7.656-18.312-27.053-31.311-49.764-31.311-7.713 0-15.055 1.486-21.683 4.2-9.113-14.913-26.511-24.969-46.536-24.969-19.997 0-37.423 10.056-46.508 24.969-6.628-2.714-13.969-4.2-21.683-4.2-22.74 0-42.108 12.999-49.764 31.311-21.425 1.542-39.252 14.684-46.022 32.539z" fill="#ffe07d" fill-rule="evenodd"/></g><g><path clip-rule="evenodd" d="m29.161 421.738 194.144 44.538s266.362-131.156 193.83-282.51c-4.685-19.083-10.398-34.567-17.026-45.509-52.413 13.036-110.213-13.922-162.091-12.97-62.611 1.149-119.284 27.45-182.603 10.999-26.169 43.337-38.538 157.238-26.254 285.452z" fill="#d8a595" fill-rule="evenodd"/></g><g><path clip-rule="evenodd" d="m55.414 136.285c115.784 30.082 229.025 30.739 344.694 1.971 2.6-.657 5.171-1.314 7.742-1.971 12.227-3.2 19.597-15.741 16.398-27.94-3.171-12.199-15.712-19.569-27.91-16.398-.229.057-.457.114-.714.171-110.327 28.597-217.655 28.597-327.982 0-.257-.057-.486-.114-.714-.171-12.198-3.171-24.739 4.2-27.939 16.398-3.172 12.199 4.198 24.741 16.425 27.94z" fill="#d09080" fill-rule="evenodd"/></g><g><path clip-rule="evenodd" d="m27.504 503.843h210.513c-8.427-2.228-14.712-9.942-14.712-19.026v-18.541-44.538h-194.144c1.514 15.684 3.371 31.596 5.628 47.595h-7.285c-9.484 0-17.226 7.771-17.226 17.255s7.742 17.255 17.226 17.255z" fill="#d09080" fill-rule="evenodd"/></g><g><path clip-rule="evenodd" d="m271.641 112.259c41.137-2.628 82.331-9.342 123.982-20.141-6.77-17.855-24.597-30.996-46.022-32.539-7.656-18.312-27.053-31.311-49.764-31.311-7.713 0-15.055 1.486-21.683 4.2-9.113-14.912-26.511-24.968-46.536-24.968-7.142 0-13.998 1.286-20.226 3.628 31.596 22.198 54.164 58.651 60.249 101.131z" fill="#ffd064" fill-rule="evenodd"/></g><g><path clip-rule="evenodd" d="m224.933 159.311c58.192.6 116.383-6.428 175.175-21.055 2.6-.657 5.171-1.314 7.742-1.971 12.227-3.2 19.597-15.741 16.398-27.94-3.171-12.199-15.712-19.569-27.91-16.398-.229.057-.457.114-.714.171-41.623 10.799-82.845 17.512-123.982 20.141-24.054 1.571-48.079 1.714-72.133.457 9.426 13.57 17.968 29.226 25.424 46.595z" fill="#ce775f" fill-rule="evenodd"/></g><g><path clip-rule="evenodd" d="m355.772 259.3h48.479v-34.425h-5.285c-5.428 0-9.856-4.428-9.856-9.856v-21.398c0-5.428 4.428-9.856 9.827-9.856h18.197c-4.685-19.083-10.398-34.567-17.026-45.509-58.792 14.627-116.983 21.655-175.175 21.055-56.306-.543-112.613-8.228-169.519-23.026-4.856 7.171-11.37 24.026-14.369 35.396 21.597 6.314 83.102 25.968 202.571 25.968h91.873c11.17 0 20.283 9.142 20.283 20.283z" fill="#d09080" fill-rule="evenodd"/></g><g><path clip-rule="evenodd" d="m242.988 504.5h239.052c10.827 0 19.683-8.856 19.683-19.683v-18.541l-141.966-16.346-136.452 16.346v18.541c0 9.085 6.285 16.798 14.712 19.026 1.6.428 3.257.657 4.971.657z" fill="#ff8086" fill-rule="evenodd"/></g><g><path clip-rule="evenodd" d="m404.25 212.016h77.789v60.143h-77.789z" fill="#ff8086" fill-rule="evenodd"/></g><g><path clip-rule="evenodd" d="m223.305 466.276h278.418v-187.293c0-10.827-8.856-19.683-19.683-19.683h-77.79-48.479v-41.367c0-11.142-9.113-20.283-20.283-20.283h-91.873c-11.17 0-20.311 9.142-20.311 20.283v9.056 32.311 93.046 69.392 44.538zm82.502-201.748h-32.51c-9.284 0-16.912-7.599-16.912-16.884 0-9.313 7.628-16.912 16.912-16.912h32.51c9.284 0 16.883 7.599 16.883 16.912.001 9.284-7.598 16.884-16.883 16.884z" fill="#407093" fill-rule="evenodd"/></g><g><path clip-rule="evenodd" d="m404.25 224.875h77.789 5.314c5.399 0 9.827-4.428 9.827-9.856v-21.398c0-5.428-4.428-9.856-9.827-9.856h-70.219-18.197c-5.399 0-9.827 4.428-9.827 9.856v21.398c0 5.428 4.428 9.856 9.827 9.856z" fill="#407093" fill-rule="evenodd"/></g><g><path clip-rule="evenodd" d="m284.41 308.551c-11.084 27.168 21.911 77.191 54.535 80.562 18.768-5.668 44.759-34.899 36.652-55.251-7.513-18.112-27.282-31.111-46.251-27.311-39.822 7.999-38.194-14.455-44.936 2z" fill="#a7e9a6" fill-rule="evenodd"/></g><g><path clip-rule="evenodd" d="m347.458 403.94c36.795 43.395 98.443-31.939 83.845-67.649-6.742-16.455-5.114 5.999-44.908-1.971-3.6-.743-7.228-.857-10.798-.457-11.97 1.371-23.254 8.628-30.481 18.769-7.285 10.227-10.484 23.397-6.171 36.482 1.543 4.685 4.085 9.37 7.742 13.913z" fill="#4fc9af" fill-rule="evenodd"/></g><g><path clip-rule="evenodd" d="m461.128 224.875h20.911 5.314c5.399 0 9.827-4.428 9.827-9.856v-21.398c0-5.428-4.428-9.856-9.827-9.856h-26.225c5.399 0 9.827 4.428 9.827 9.856v21.398c0 5.428-4.428 9.856-9.827 9.856z" fill="#2b4d66" fill-rule="evenodd"/></g><g><path clip-rule="evenodd" d="m455.814 259.3h26.225v-34.425h-20.911-5.314z" fill="#e5646e" fill-rule="evenodd"/></g><g><path clip-rule="evenodd" d="m461.499 466.276h40.223v-187.293c0-10.827-8.856-19.683-19.683-19.683h-26.225-13.998c10.827 0 19.683 8.856 19.683 19.683z" fill="#2b4d66" fill-rule="evenodd"/></g><g><path clip-rule="evenodd" d="m441.816 504.5h40.223c10.827 0 19.683-8.856 19.683-19.683v-18.541h-40.223v18.541c0 10.827-8.855 19.683-19.683 19.683z" fill="#e5646e" fill-rule="evenodd"/></g><g><path clip-rule="evenodd" d="m362.342 414.996c36.223 13.998 81.703-47.48 68.962-78.705-4.714-11.542-5.342-3.971-18.969-1.143-.457.086-.914.171-1.371.257 0 .057.029.086.029.114.057.171.143.314.2.486 9.884 25.597-18.484 70.878-48.851 78.991z" fill="#26bb9e" fill-rule="evenodd"/></g><g><path clip-rule="evenodd" d="m284.41 308.551c-6.056 14.884 1.086 36.624 14.169 53.794 10.77 14.17 25.596 25.254 40.366 26.768-1.885-5.656-2.342-11.342-1.685-16.77-4.571-2.943-8.97-6.599-13.027-10.742-15.169-15.484-25.539-37.767-23.425-54.822-11.17-3.113-11.998-8.998-16.398 1.772z" fill="#7fdbae" fill-rule="evenodd"/></g><g><path d="m330.19 247.644c0-13.461-10.938-24.413-24.383-24.413h-32.51c-13.46 0-24.412 10.952-24.412 24.413 0 13.445 10.951 24.384 24.412 24.384h32.51c13.445 0 24.383-10.939 24.383-24.384zm-66.304 0c0-5.19 4.222-9.413 9.412-9.413h32.51c5.174 0 9.383 4.223 9.383 9.413 0 5.174-4.209 9.384-9.383 9.384h-32.51c-5.19 0-9.412-4.21-9.412-9.384z"/><path d="m489.54 252.86v-20.639c8.523-1.082 15.141-8.375 15.141-17.202v-21.397c0-9.57-7.773-17.356-17.327-17.356h-64.402c-3.452-12.96-7.378-24.056-11.731-33.149 7.199-2.269 13.226-7.063 17.081-13.629 4.121-7.019 5.258-15.203 3.205-23.028-2.038-7.839-7.02-14.424-14.029-18.542-5.34-3.138-11.358-4.545-17.387-4.14-8.635-16.669-25.672-28.403-45.501-31.204-10.033-19.192-31.456-31.804-54.752-31.804-6.47 0-12.763.915-18.778 2.724-11.331-14.625-29.736-23.494-49.442-23.494-19.715 0-38.112 8.869-49.418 23.491-6.014-1.808-12.304-2.722-18.772-2.722-23.683 0-44.687 12.344-54.763 31.805-19.829 2.803-36.86 14.539-45.493 31.208-14.251-.943-27.681 8.34-31.442 22.677-3.404 13.094 2.33 26.468 13.225 33.36-13.067 26.421-22.252 70.268-26.075 125.043-.288 4.132 2.828 7.715 6.96 8.004.178.012.354.019.53.019 3.904 0 7.198-3.024 7.474-6.979 3.722-53.342 12.873-96.848 25.316-120.943 57.994 14.616 115.23 21.947 172.469 21.947 54.683 0 109.372-6.685 164.718-20.026 4.037 7.803 7.738 17.638 11.055 29.381h-8.436c-9.57 0-17.355 7.786-17.355 17.356v21.397c0 8.818 6.615 16.105 15.141 17.198v19.584h-33.479v-33.867c0-15.32-12.463-27.784-27.783-27.784h-91.873c-15.335 0-27.812 12.464-27.812 27.784v196.305h-179.799c-3.396-38.065-4.727-75.964-3.861-111.762.101-4.141-3.175-7.579-7.316-7.679-4.129-.099-7.578 3.176-7.679 7.317-.931 38.49.634 79.358 4.544 120.272.007.076.014.153.023.228 1.255 13.106 2.747 26.215 4.479 39.252-13.028.683-23.417 11.51-23.417 24.721 0 13.65 11.092 24.755 24.726 24.755h209.667c1.914.428 3.864.657 5.817.657h239.051c14.989 0 27.183-12.194 27.183-27.184v-18.541-187.291c-.001-12.387-8.332-22.858-19.683-26.123zm-375.338-185.8c2.822-.203 5.29-1.977 6.381-4.587 6.678-15.972 23.896-26.704 42.845-26.704 6.604 0 12.942 1.225 18.84 3.64 3.411 1.397 7.331.109 9.248-3.039 8.029-13.181 23.396-21.37 40.102-21.37 16.699 0 32.078 8.192 40.136 21.379 1.92 3.142 5.836 4.425 9.242 3.03 5.898-2.416 12.237-3.64 18.84-3.64 18.949 0 36.167 10.731 42.845 26.704 1.091 2.61 3.559 4.384 6.381 4.587 14.988 1.08 28.175 8.71 35.631 20.089-102.885 25.213-203.238 25.213-306.123 0 7.457-11.379 20.644-19.009 35.632-20.089zm291.76 61.966c-117.305 30.496-231.354 30.497-348.649.003-8.236-2.155-13.2-10.587-11.071-18.781 1.818-6.93 8.093-11.538 14.936-11.538 1.276 0 2.572.16 3.862.496h-.001c56.057 14.582 111.315 21.872 166.594 21.87 55.265-.001 110.549-7.292 166.592-21.87 3.962-1.03 8.099-.446 11.654 1.643 3.556 2.089 6.081 5.422 7.115 9.399 1.037 3.955.459 8.09-1.627 11.644-2.092 3.561-5.435 6.096-9.405 7.134zm-9.352 85.993v-21.397c0-1.277 1.079-2.356 2.355-2.356h18.14c.008 0 .015.002.023.002.011 0 .022-.002.032-.002h70.192c1.261 0 2.327 1.079 2.327 2.356v21.397c0 1.277-1.066 2.356-2.327 2.356h-5.313-77.789-5.285c-1.277 0-2.355-1.079-2.355-2.356zm77.93 17.356v19.425h-62.79v-19.425zm-456.762 254.213c0-5.379 4.363-9.755 9.726-9.755h7.285c2.172 0 4.237-.941 5.662-2.582 1.424-1.64 2.068-3.816 1.764-5.967-1.829-12.953-3.41-25.994-4.76-39.046h178.35v37.038 18.541c0 4.086.936 7.997 2.6 11.526h-190.901c-5.363 0-9.726-4.376-9.726-9.755zm464.262 10.412h-239.052c-1.03 0-2.021-.131-3.054-.408-5.375-1.421-9.129-6.263-9.129-11.775v-11.041h115.597c4.142 0 7.5-3.358 7.5-7.5s-3.358-7.5-7.5-7.5h-115.597v-240.843c0-7.049 5.747-12.784 12.812-12.784h91.873c7.048 0 12.783 5.735 12.783 12.784v41.367c0 4.142 3.358 7.5 7.5 7.5h48.479 77.789c6.718 0 12.183 5.465 12.183 12.183v179.793h-112.94c-4.142 0-7.5 3.358-7.5 7.5s3.358 7.5 7.5 7.5h112.94v11.041c-.002 6.718-5.467 12.183-12.184 12.183z"/><path d="m438.244 333.447c-1.735-4.235-3.801-8.512-8.24-10.203-4.294-1.637-7.902.124-10.803 1.538-4.599 2.243-12.295 5.997-31.332 2.184-2.515-.505-5.066-.741-7.625-.769-10.492-19.603-32.142-31.05-52.37-27-.001 0-.002 0-.004.001-19.056 3.828-26.758.078-31.361-2.162-2.9-1.412-6.509-3.168-10.802-1.531-4.437 1.693-6.502 5.969-8.241 10.213-5.652 13.853-2.317 33.298 8.92 52.016 9.642 16.061 26.792 33.843 47.137 38.104 1.275 2.866 2.841 5.671 4.71 8.385-4.565 7.192-8.58 15.623-11.836 25.905-1.251 3.949.937 8.164 4.885 9.415.753.239 1.516.352 2.267.352 3.183 0 6.136-2.042 7.148-5.237 2.323-7.334 5.039-13.529 8.11-18.947 7.358 5.902 15.671 8.904 24.508 8.903 8.15 0 16.742-2.541 25.426-7.676 26.847-15.878 50.457-56.658 39.503-83.491zm-103.771 1.539c-3.229-2.594-7.95-2.08-10.544 1.149s-2.08 7.95 1.149 10.544c3.369 2.707 6.784 5.3 10.103 7.815-4.147 7.861-6.027 16.141-5.691 24.323-10.981-4.841-22.117-15.267-30.245-28.804-8.686-14.469-11.71-29.271-7.896-38.619.022-.055.045-.109.067-.162 6.207 2.928 17.255 7.119 39.403 2.673 12.064-2.417 25.43 3.912 33.442 14.969-.788.283-1.544.614-2.284.969-6.641 2.764-12.845 7.003-18.045 12.462-3.138-2.379-6.354-4.824-9.459-7.319zm22.929 68.382c7.309-8.666 15.931-15.382 25.614-22.916 2.501-1.946 5.048-3.928 7.63-5.989 3.237-2.584 3.767-7.303 1.183-10.541-2.584-3.237-7.302-3.767-10.541-1.183-2.533 2.022-5.031 3.965-7.484 5.874-9.085 7.069-17.928 13.955-25.818 22.763-7.218-14.171-1.543-26.723 1.623-31.949 6.837-11.288 18.625-18.274 30.024-18.274 1.777 0 3.545.17 5.282.52.002 0 .005.001.007.001 22.128 4.433 33.172.235 39.376-2.697.02.049.041.098.061.148 7.229 17.708-9.865 51.069-33.256 64.903-12.931 7.648-24.238 7.414-33.701-.66z"/></g></g></svg>