<svg id="Capa_1" enable-background="new 0 0 512.002 512.002" height="512" viewBox="0 0 512.002 512.002" width="512" xmlns="http://www.w3.org/2000/svg"><g><path d="m428.501 247.501h-30l30 30h30c0-16.569-13.432-30-30-30z" fill="#20335a"/><path d="m398.501 247.501h-315c-16.568 0-30 13.431-30 30h375c0-16.569-13.432-30-30-30z" fill="#2b4478"/><path d="m398.501 307.501h-30l30 30h30c0-16.569-13.432-30-30-30z" fill="#20335a"/><path d="m368.501 307.501h-255c-16.568 0-30 13.431-30 30h315c0-16.569-13.432-30-30-30z" fill="#2b4478"/><path d="m398.501 157.501-30 30h30c16.568 0 30-13.431 30-30z" fill="#20335a"/><path d="m263.501 112.501-15 60h60v-15c0-24.75-20.25-45-45-45z" fill="#2b4478"/><path d="m263.501 112.501h-15c-24.75 0-45 20.25-45 45v15h75v-15c0-24.75-6.75-45-15-45z" fill="#4d5ca5"/><path d="m83.501 157.501c0 16.569 13.432 30 30 30h142.5l-52.5-30z" fill="#2b4478"/><path d="m308.501 157.501-52.5 30h112.5c16.568 0 30-13.431 30-30z" fill="#2b4478"/><path d="m353.501 232.501-97.5-45v287c62.132 0 112.5-50.368 112.5-112.5v-114.5c0-8.25-6.75-15-15-15z" fill="#20335a"/><path d="m338.501 362.001v-114.5c0-8.25-6.75-15-15-15l-112.5-45 45 287c45.563 0 82.5-50.368 82.5-112.5z" fill="#2b4478"/><path d="m158.501 232.501c-8.25 0-15 6.75-15 15v114.5c0 62.132 50.368 112.5 112.5 112.5v-287z" fill="#4d5ca5"/><path d="m308.501 157.501h-30l45 75h30c8.25 0 15-6.75 15-15 0-33-27-60-60-60z" fill="#4d5ca5"/><path d="m338.501 217.501c0-33-27-60-60-60h-75c-33 0-60 27-60 60 0 8.25 6.75 15 15 15h67.5c16.5 0 30 13.5 30 30 0-16.5 13.5-30 30-30h37.5c8.25 0 15-6.75 15-15z" fill="#7073d2"/><path d="m271.501 7.501c-5.881 0-11.277 2.074-15.5 5.528l-15 18.972 15 50.5s40-18.817 40-50.5c0-13.531-10.969-24.5-24.5-24.5z" fill="#ff3a33"/><path d="m240.501 7.501c-13.531 0-24.5 10.969-24.5 24.5 0 31.683 40 50.5 40 50.5v-69.472c-4.223-3.454-9.619-5.528-15.5-5.528z" fill="#ff534d"/><path d="m504.501 330c-21.229 0-38.5-17.271-38.5-38.5v-14c0-20.678-16.822-37.5-37.5-37.5h-53.79c-.991-2.794-2.517-5.335-4.458-7.5 3.571-3.984 5.748-9.242 5.748-15 0-7.888-1.373-15.458-3.87-22.5h26.37c20.678 0 37.5-16.822 37.5-37.5 0-62.033-50.468-112.5-112.5-112.5-4.143 0-7.5 3.358-7.5 7.5s3.357 7.5 7.5 7.5c51.239 0 93.372 39.729 97.214 90h-105.258c-3.651-25.407-25.554-45-51.956-45h-15c-26.401 0-48.304 19.593-51.956 45h-105.258c3.842-50.271 45.976-90 97.214-90 4.143 0 7.5-3.358 7.5-7.5s-3.357-7.5-7.5-7.5c-62.032 0-112.5 50.467-112.5 112.5 0 20.678 16.822 37.5 37.5 37.5h26.37c-2.498 7.042-3.87 14.612-3.87 22.5 0 5.758 2.177 11.016 5.748 15-1.94 2.165-3.467 4.706-4.458 7.5h-53.79c-20.678 0-37.5 16.822-37.5 37.5v14c0 21.229-17.271 38.5-38.5 38.5-4.143 0-7.5 3.358-7.5 7.5s3.357 7.5 7.5 7.5c29.5 0 53.5-24 53.5-53.5v-6.5h75v15h-22.5c-20.678 0-37.5 16.822-37.5 37.5v24.5c0 50.72 10.311 99.687 30.644 145.541 1.241 2.798 3.984 4.461 6.86 4.461 1.016 0 2.048-.208 3.036-.646 3.787-1.679 5.495-6.11 3.816-9.896-19.479-43.927-29.356-90.848-29.356-139.46v-17h45v17c0 66.168 53.832 120 120 120s120-53.832 120-120v-17h45v17c0 48.612-9.877 95.533-29.356 139.459-1.679 3.787.029 8.217 3.816 9.896.988.438 2.021.646 3.036.646 2.875 0 5.619-1.664 6.86-4.461 20.333-45.854 30.644-94.82 30.644-145.541v-24.5c0-20.678-16.822-37.5-37.5-37.5h-22.5v-15h75v6.5c0 29.5 24 53.5 53.5 53.5 4.143 0 7.5-3.358 7.5-7.5s-3.357-7.499-7.5-7.499zm-368.5 0h-43.71c3.096-8.729 11.433-15 21.21-15h22.5zm0-60h-73.71c3.096-8.729 11.433-15 21.21-15h52.5zm112.5-150h15c18.11 0 33.261 12.904 36.745 30h-88.491c3.485-17.096 18.636-30 36.746-30zm-135 60c-9.777 0-18.114-6.271-21.21-15h68.849c-5.293 4.279-9.932 9.334-13.733 15zm247.5 182c0 55.375-43.09 100.87-97.5 104.729v-159.229c0-4.142-3.357-7.5-7.5-7.5s-7.5 3.358-7.5 7.5v159.229c-54.41-3.859-97.5-49.354-97.5-104.729v-114.5c0-4.136 3.364-7.5 7.5-7.5h67.5c12.406 0 22.5 10.093 22.5 22.5v15c0 4.142 3.357 7.5 7.5 7.5s7.5-3.358 7.5-7.5v-15c0-12.407 10.094-22.5 22.5-22.5h67.5c4.136 0 7.5 3.364 7.5 7.5zm-7.5-137h-67.5c-12.253 0-23.152 5.907-30 15.023-6.848-9.116-17.747-15.023-30-15.023h-67.5c-4.136 0-7.5-3.364-7.5-7.5 0-9.32 2.452-18.074 6.729-25.669.27-.381.504-.788.701-1.217 9.178-15.327 25.943-25.613 45.07-25.613h105c19.127 0 35.893 10.286 45.071 25.614.196.429.43.836.7 1.217 4.277 7.595 6.729 16.349 6.729 25.669 0 4.135-3.364 7.499-7.5 7.499zm-2.639-60h68.849c-3.096 8.729-11.433 15-21.21 15h-33.906c-3.801-5.666-8.44-10.721-13.733-15zm47.639 150c9.777 0 18.114 6.271 21.21 15h-43.71v-15zm-22.5-45v-15h52.5c9.777 0 18.114 6.271 21.21 15z"/><path d="m252.809 89.287c1.011.476 2.102.713 3.192.713s2.182-.238 3.192-.713c1.81-.851 44.308-21.257 44.308-57.287 0-17.645-14.355-32-32-32-5.438 0-10.783 1.399-15.5 4.008-4.717-2.609-10.062-4.008-15.5-4.008-17.645 0-32 14.355-32 32 0 36.029 42.498 56.436 44.308 57.287zm-12.308-74.287c3.968 0 7.686 1.326 10.751 3.833 2.764 2.26 6.734 2.26 9.498 0 3.065-2.508 6.783-3.833 10.751-3.833 9.374 0 17 7.626 17 17 0 21.705-23.741 37.084-32.5 42.018-8.768-4.94-32.5-20.318-32.5-42.018 0-9.374 7.626-17 17-17z"/></g></svg>